<?xml version="1.0" encoding="UTF-8" standalone="no"?>
<!DOCTYPE svg PUBLIC "-//W3C//DTD SVG 1.1//EN" "http://www.w3.org/Graphics/SVG/1.1/DTD/svg11.dtd">
<svg width="100%" height="100%" viewBox="0 0 459 459" version="1.1" xmlns="http://www.w3.org/2000/svg" xmlns:xlink="http://www.w3.org/1999/xlink" xml:space="preserve" xmlns:serif="http://www.serif.com/" style="fill-rule:evenodd;clip-rule:evenodd;stroke-linejoin:round;stroke-miterlimit:2;">
    <g transform="matrix(1,0,0,1,-10747.2,-2912.41)">
        <g transform="matrix(1,0,0,1,3870.48,-2918.17)">
            <path d="M7076.31,5911.84C7081.79,5912.18 7087.18,5910.24 7091.18,5906.48C7095.19,5902.72 7097.46,5897.47 7097.46,5891.97C7097.56,5877.98 7097.56,5862.58 7097.56,5862.58C7097.56,5844.91 7111.88,5830.58 7129.56,5830.58C7174.29,5830.58 7255.17,5830.58 7300.96,5830.58C7319.74,5830.58 7334.96,5845.8 7334.96,5864.58C7334.96,5910.38 7334.96,5991.29 7334.96,6036.02C7334.96,6053.68 7320.65,6067.98 7303,6067.98L7273.57,6067.98C7268.05,6067.98 7262.77,6070.27 7258.99,6074.29C7255.21,6078.32 7253.26,6083.73 7253.61,6089.24C7256.7,6141.13 7238.39,6194.02 7198.79,6233.62C7125.14,6307.26 7005.56,6307.26 6931.92,6233.62C6858.28,6159.98 6858.28,6040.4 6931.92,5966.75C6971.52,5927.15 7024.41,5908.84 7076.31,5911.84ZM7097.56,5973.66C7097.56,5963.39 7089.78,5954.79 7079.57,5953.76C7037.34,5949.79 6993.69,5963.91 6961.38,5996.22C6904,6053.6 6904,6146.77 6961.38,6204.16C7018.77,6261.54 7111.94,6261.54 7169.32,6204.16C7201.63,6171.85 7215.75,6128.2 7211.68,6085.98C7210.65,6075.82 7202.09,6068.09 7191.88,6068.09C7174.24,6067.98 7149.15,6067.98 7149.15,6067.98C7138.1,6067.98 7129.15,6076.94 7129.15,6087.98C7129.15,6100.39 7129.15,6116.6 7129.15,6130.75C7129.15,6139.24 7125.77,6147.38 7119.77,6153.38C7113.77,6159.38 7105.63,6162.75 7097.15,6162.75L7036.79,6162.75C7027.77,6162.75 7019.12,6159.17 7012.74,6152.8C7006.37,6146.42 7002.78,6137.77 7002.78,6128.75L7002.78,6068.39C7002.78,6059.91 7006.16,6051.77 7012.16,6045.77C7018.16,6039.77 7026.3,6036.39 7034.78,6036.39C7048.94,6036.39 7065.15,6036.39 7077.56,6036.39C7088.6,6036.39 7097.56,6027.44 7097.56,6016.39L7097.56,5973.66ZM7190.76,5980.81C7190.76,5977.36 7187.97,5974.56 7184.51,5974.56L7136.73,5974.56C7133.28,5974.56 7130.48,5977.36 7130.48,5980.81L7130.48,6028.59C7130.48,6032.04 7133.28,6034.84 7136.73,6034.84L7184.51,6034.84C7187.97,6034.84 7190.76,6032.04 7190.76,6028.59L7190.76,5980.81ZM7178.26,5987.06L7178.26,6022.34C7178.26,6022.34 7142.98,6022.34 7142.98,6022.34C7142.98,6022.34 7142.98,5987.06 7142.98,5987.06L7178.26,5987.06ZM7170.77,5994.55L7150.47,5994.55L7150.47,6014.85L7170.77,6014.85L7170.77,5994.55ZM7303.34,5868.48C7303.34,5865.03 7300.54,5862.23 7297.09,5862.23L7249.31,5862.23C7245.85,5862.23 7243.06,5865.03 7243.06,5868.48L7243.06,5916.26C7243.06,5919.71 7245.85,5922.51 7249.31,5922.51L7297.09,5922.51C7300.54,5922.51 7303.34,5919.71 7303.34,5916.26L7303.34,5868.48ZM7190.76,5868.48C7190.76,5865.03 7187.97,5862.23 7184.51,5862.23L7136.73,5862.23C7133.28,5862.23 7130.48,5865.03 7130.48,5868.48L7130.48,5916.26C7130.48,5919.71 7133.28,5922.51 7136.73,5922.51L7184.51,5922.51C7187.97,5922.51 7190.76,5919.71 7190.76,5916.26L7190.76,5868.48ZM7290.84,5874.73L7290.84,5910.01C7290.84,5910.01 7255.56,5910.01 7255.56,5910.01C7255.56,5910.01 7255.56,5874.73 7255.56,5874.73L7290.84,5874.73ZM7178.26,5874.73L7178.26,5910.01C7178.26,5910.01 7142.98,5910.01 7142.98,5910.01C7142.98,5910.01 7142.98,5874.73 7142.98,5874.73L7178.26,5874.73ZM7283.37,5882.2L7263.02,5882.2L7263.02,5902.54L7283.37,5902.54L7283.37,5882.2ZM7170.77,5882.22L7150.47,5882.22L7150.47,5902.52L7170.77,5902.52L7170.77,5882.22Z" style="fill:rgb(255,167,0);"/>
        </g>
    </g>
</svg>
