<svg height="512pt" viewBox="0 0 512 512.00063" width="512pt" xmlns="http://www.w3.org/2000/svg"><path d="m469.882812 396.707031c-.207031.316407-.5625.5-.941406.5-18.816406.007813-34.070312 15.261719-34.070312 34.082031v4.015626c0 2.445312-.980469 4.796874-2.753906 6.476562-19.046876 18.058594-40.867188 33.21875-64.757813 44.78125-1.285156.621094-2.699219.9375-4.128906.9375h-18.835938c-5.390625 0-9.996093 3.359375-11.835937 8.101562-.550782 1.421876-1.980469 5.351563-2.554688 5.523438-17.339844 5.230469-35.449218 8.675781-54.125 10.109375-6.558594-.503906-13.191406-.761719-19.878906-.761719-6.691406 0-13.320312.257813-19.882812.761719-19.375-1.488281-38.195313-5.144531-56.117188-10.707031-.449219-.140625-1.25-.949219-1.25-1.214844 0-7.007812-5.683594-12.691406-12.691406-12.691406h-18.886719c-1.585937 0-3.15625-.355469-4.578125-1.058594-23.949219-11.855469-45.78125-27.347656-64.765625-45.753906-3.011719-2.917969-4.703125-6.941406-4.703125-11.136719v-3.824219c0-16.140625-13.085938-29.222656-29.222656-29.226562-1.535156 0-2.980469-.746094-3.808594-2.039063-25.375-39.738281-40.09375-86.9375-40.09375-137.582031 0-141.1875 114.292969-255.679688 255.40625-256 140.863281-.320312 254.902344 112.03125 256.574219 252.890625.632812 53.15625-14.949219 102.636719-42.097657 143.816406zm0 0" fill="#bad9de"/><path d="m470 341.992188v54.515624c-10.898438 16.566407-23.660156 31.792969-38 45.375v-54.890624c0-2.761719-2.238281-5-5-5h-54c-2.761719 0-5 2.238281-5 5v99.25c-5.875 2.867187-11.878906 5.523437-18 7.941406-6.539062 2.578125-13.210938 4.886718-20 6.933594v-159.125zm-430 51.449218c10.824219 16.976563 23.597656 32.582032 38 46.515625v-52.964843c0-2.761719 2.238281-5 5-5h54c2.761719 0 5 2.238281 5 5v98.257812c12.152344 6.050781 24.84375 11.183594 38 15.269531v-158.527343h-140zm195 117.707032c1.375.113281 11.980469.945312 21 .84375 1.972656-.023438 18.894531-.636719 21-.863282v-281.136718h-42zm0 0" fill="#1a4d59"/><path d="m185 325v30c0 2.761719-2.238281 5-5 5h-140c-2.761719 0-5-2.238281-5-5v-30c0-2.761719 2.238281-5 5-5h140c2.761719 0 5 2.238281 5 5zm146-50v-30c0-2.761719-2.238281-5-5-5h-140c-2.761719 0-5 2.238281-5 5v30c0 2.761719 2.238281 5 5 5h140c2.761719 0 5-2.238281 5-5zm139 45h-140c-2.761719 0-5 2.238281-5 5v30c0 2.761719 2.238281 5 5 5h140c2.761719 0 5-2.238281 5-5v-30c0-2.761719-2.238281-5-5-5zm-111 70c-4.96875 0-9 4.027344-9 9v95.1875c6.121094-2.414062 12.121094-5.070312 18-7.9375v-87.25c0-4.972656-4.027344-9-9-9zm-188 0c-4.96875 0-9 4.027344-9 9v95.1875c5.894531 2.332031 11.898438 4.445312 18 6.339844v-101.527344c0-4.972656-4.027344-9-9-9zm290 0c-4.96875 0-9 4.027344-9 9v21.664062c6.355469-7.558593 12.285156-15.492187 17.746094-23.757812-.945313-3.960938-4.496094-6.90625-8.746094-6.90625zm-197.5-90c-7.457031 0-13.5 6.042969-13.5 13.5v198.441406c1.996094.046875 3.996094.058594 6 .058594 1.972656 0 3.9375-.03125 5.898438-.074219.890624-.023437 1.78125-.054687 2.667968-.085937.992188-.03125 1.984375-.066406 2.972656-.109375 1.175782-.054688 2.347657-.113281 3.515626-.183594.605468-.035156 1.210937-.074219 1.816406-.113281 1.378906-.089844 2.757812-.171875 4.128906-.285156v-197.648438c0-7.457031-6.042969-13.5-13.5-13.5zm-194.5 90c-4.96875 0-9 4.027344-9 9v21.664062c5.667969 6.738282 11.675781 13.191407 18 19.3125v-40.976562c0-4.972656-4.027344-9-9-9zm0 0" fill="#2e7487"/><path d="m190.183594 165.707031-8.570313 60c-.351562 2.460938-2.460937 4.292969-4.949219 4.292969h-21.328124c-2.488282 0-4.597657-1.832031-4.949219-4.292969l-8.570313-60c-.429687-3.011719 1.90625-5.707031 4.949219-5.707031h38.46875c3.042969 0 5.382813 2.695312 4.949219 5.707031zm175.050781-5.707031h-38.46875c-3.042969 0-5.378906 2.695312-4.949219 5.707031l8.570313 60c.351562 2.460938 2.460937 4.292969 4.949219 4.292969h21.328124c2.488282 0 4.597657-1.832031 4.949219-4.292969l8.570313-60c.433594-3.011719-1.90625-5.707031-4.949219-5.707031zm0 0" fill="#f7f2ed"/><path d="m301 197.5c0 20.710938-16.789062 37.5-37.5 37.5h-15c-20.710938 0-37.5-16.789062-37.5-37.5 0-18.140625 12.882812-33.273438 30-36.75v-23.25c0-4.140625 3.359375-7.5 7.5-7.5h15c4.140625 0 7.5 3.359375 7.5 7.5v23.25c17.117188 3.476562 30 18.609375 30 36.75zm0 0" fill="#e62a2a"/><path d="m301 197.5c0 20.710938-16.789062 37.5-37.5 37.5s-37.5-16.789062-37.5-37.5c0-18.140625 12.882812-33.273438 30-36.75h5.789062c2.03125 0 3.851563-1.519531 3.957032-3.546875.113281-2.164063-1.609375-3.953125-3.746094-3.953125-3.3125 0-6-2.6875-6-6v-9.4375c0-4.105469 3.164062-7.6875 7.269531-7.808594 4.246094-.128906 7.730469 3.277344 7.730469 7.496094v23.25c17.117188 3.476562 30 18.609375 30 36.75zm0 0" fill="#fd4343"/><path d="m210 321c0 11.597656-9.402344 21-21 21h-142c-11.597656 0-21-9.402344-21-21 0-.335938 0-1.664062 0-2v-228c0-11.597656 9.402344-21 21-21s21 9.402344 21 21v204c0 2.761719 2.238281 5 5 5h116c11.597656 0 21 9.402344 21 21zm0 0" fill="#df8c00"/><path d="m210 321c0 11.597656-9.402344 21-21 21h-118c-11.597656 0-21-9.402344-21-21 0-.335938 0-1.664062 0-2v-228c0-7.132812 3.5625-13.425781 9-17.21875 5.4375 3.792969 9 10.085938 9 17.21875v204c0 2.761719 2.238281 5 5 5h116c11.597656 0 21 9.402344 21 21zm273.949219-1.003906c.015625-.332032.050781-.660156.050781-.996094v-228c0-11.597656-9.402344-21-21-21s-21 9.402344-21 21v204c0 2.761719-2.238281 5-5 5h-116c-11.597656 0-21 9.402344-21 21s9.402344 21 21 21h142c11.597656 0 21-9.402344 21-21 0-.339844-.035156-.667969-.050781-1.003906zm0 0" fill="#f39d0b"/><path d="m476 74.527344c-4.867188 3.847656-8 9.789062-8 16.472656v204c0 2.761719-2.238281 5-5 5h-26c2.761719 0 5-2.238281 5-5v-204c0-11.597656 9.402344-21 21-21 4.914062 0 9.421875 1.699219 13 4.527344zm-129 225.472656h-26c-11.597656 0-21 9.402344-21 21s9.402344 21 21 21h26c-11.597656 0-21-9.402344-21-21s9.402344-21 21-21zm0 0" fill="#df8c00"/><path d="m411 225v32c0 2.761719-2.238281 5-5 5h-300c-2.761719 0-5-2.238281-5-5v-32c0-2.761719 2.238281-5 5-5h300c2.761719 0 5 2.238281 5 5zm0 0" fill="#f39d0b"/><path d="m411 225v32c0 2.761719-2.238281 5-5 5h-271c-2.761719 0-5-2.238281-5-5v-32c0-2.761719 2.238281-5 5-5h271c2.761719 0 5 2.238281 5 5zm0 0" fill="#f6ab39"/></svg>