<svg width="87" height="87" viewBox="0 0 87 87" fill="none" xmlns="http://www.w3.org/2000/svg">
<path fill-rule="evenodd" clip-rule="evenodd" d="M82.6752 62.432C83.0376 61.6834 83.3792 60.923 83.6992 60.1513C85.8261 55.0223 87 49.3982 87 43.5C87 37.6018 85.8261 31.9777 83.6992 26.8487C83.3792 26.077 83.0376 25.3166 82.6752 24.568C82.311 23.8158 81.9258 23.0756 81.5203 22.3483C79.1509 23.4928 78.0599 26.3027 79.0806 28.764C80.9601 33.2965 82 38.2705 82 43.5C82 48.7295 80.9601 53.7035 79.0806 58.236C78.0599 60.6973 79.1509 63.5072 81.5203 64.6517C81.9258 63.9244 82.311 63.1842 82.6752 62.432ZM64.6517 81.5203C63.5072 79.1509 60.6973 78.0599 58.236 79.0806C53.7035 80.9601 48.7295 82 43.5 82C38.2705 82 33.2965 80.9601 28.764 79.0806C26.3027 78.0599 23.4928 79.1509 22.3483 81.5203C23.0756 81.9258 23.8158 82.311 24.568 82.6752C25.3166 83.0376 26.077 83.3792 26.8487 83.6992C31.9777 85.8261 37.6018 87 43.5 87C49.3982 87 55.0223 85.8261 60.1513 83.6992C60.923 83.3792 61.6834 83.0376 62.432 82.6752C63.1842 82.311 63.9244 81.9258 64.6517 81.5203ZM5.47972 64.6517C7.84905 63.5072 8.94007 60.6973 7.91943 58.236C6.03988 53.7035 5 48.7295 5 43.5C5 38.2705 6.03988 33.2965 7.91943 28.764C8.94007 26.3027 7.84905 23.4928 5.47972 22.3483C5.07422 23.0756 4.68899 23.8158 4.32479 24.568C3.96239 25.3166 3.62081 26.077 3.3008 26.8487C1.1739 31.9777 0 37.6018 0 43.5C0 49.3982 1.1739 55.0223 3.3008 60.1513C3.62081 60.923 3.96239 61.6834 4.32479 62.432C4.68899 63.1842 5.07422 63.9244 5.47972 64.6517ZM22.3483 5.47972C23.4928 7.84905 26.3027 8.94007 28.764 7.91943C33.2965 6.03988 38.2705 5 43.5 5C48.7295 5 53.7035 6.03988 58.236 7.91943C60.6973 8.94007 63.5072 7.84906 64.6517 5.47972C63.9244 5.07422 63.1842 4.68899 62.432 4.32479C61.6834 3.96239 60.923 3.62081 60.1513 3.3008C55.0223 1.1739 49.3982 0 43.5 0C37.6018 0 31.9777 1.1739 26.8487 3.3008C26.077 3.62081 25.3166 3.96239 24.568 4.32479C23.8158 4.68899 23.0756 5.07422 22.3483 5.47972Z" fill="#ffa700"/>
</svg>
